<?xml version="1.0" encoding="utf-8"?>
<!-- Generator: Adobe Illustrator 22.1.0, SVG Export Plug-In . SVG Version: 6.00 Build 0)  -->
<svg version="1.1" id="Layer_1" xmlns="http://www.w3.org/2000/svg" xmlns:xlink="http://www.w3.org/1999/xlink" x="0px" y="0px"
	 viewBox="0 0 100 125" style="enable-background:new 0 0 100 125;" xml:space="preserve">
<style type="text/css">
	.st0{font-family:'HelveticaNeue-Bold';}
	.st1{font-size:5px;}
</style>
<path d="M29.3,47.4c0,8.7,12,12,17.9,3.1c6.1,9.2,17.6,5.3,17.6-3.1s-11.4-12.5-17.6-3.1C41.3,35,29.3,38.7,29.3,47.4L29.3,47.4z
	 M32.5,47.4c0-6.3,8.9-8.3,13,0C41.2,55.3,32.5,53.7,32.5,47.4L32.5,47.4z M49,47.4c3.7-8.4,12.9-6.1,12.8,0
	C61.8,53.5,52.6,55.4,49,47.4z"/>
<rect x="35.8" y="46.5" width="5.3" height="1.7"/>
<polygon points="55,48.2 53.2,48.2 53.2,46.4 55,46.4 55,44.6 56.8,44.6 56.8,46.4 58.5,46.4 58.5,48.2 56.8,48.2 56.8,49.9 
	55,49.9 "/>
<text transform="matrix(1 0 0 1 0 115)" class="st0 st1">Created by uizin</text>
<text transform="matrix(1 0 0 1 0 120)" class="st0 st1">from the Noun Project</text>
</svg>
