<svg id="Layer_1" data-name="Layer 1" xmlns="http://www.w3.org/2000/svg" viewBox="0 0 633.44 485.52"><path d="M467.05,132.84h-5.58v-5.58a16.78,16.78,0,0,0-16.75-16.75h-67A16.78,16.78,0,0,0,361,127.26v5.58H176.73a28,28,0,0,0-27.92,27.92V339.42a28,28,0,0,0,27.92,27.92H467.05A28,28,0,0,0,495,339.42V160.76A28,28,0,0,0,467.05,132.84Zm-94.91-5.58a5.59,5.59,0,0,1,5.58-5.58h67a5.58,5.58,0,0,1,5.58,5.58v22.33a5.59,5.59,0,0,1-5.58,5.59h-67a5.6,5.6,0,0,1-5.58-5.59ZM160,339.42V160.76A16.76,16.76,0,0,1,176.73,144H361v5.58a16.77,16.77,0,0,0,16.75,16.75h67a16.77,16.77,0,0,0,16.75-16.75V144h5.58a16.76,16.76,0,0,1,16.75,16.75V289.17h-67v67H176.73A16.77,16.77,0,0,1,160,339.42Zm307.07,16.75H428V300.34H483.8v39.08A16.77,16.77,0,0,1,467.05,356.17Z" style="fill:#6592e6"/><path d="M204.64,171.93a16.75,16.75,0,1,0-16.74,16.75A16.76,16.76,0,0,0,204.64,171.93Zm-22.33,0a5.59,5.59,0,1,1,5.59,5.58A5.59,5.59,0,0,1,182.31,171.93Z" style="fill:#6592e6"/><path d="M455.89,311.5a16.75,16.75,0,1,0,16.75,16.75A16.77,16.77,0,0,0,455.89,311.5Zm0,22.34a5.59,5.59,0,1,1,5.58-5.59A5.59,5.59,0,0,1,455.89,333.84Z" style="fill:#6592e6"/><path d="M227,300.34h78.16V222.17H227Zm11.16-67H294v55.83H238.14Z" style="fill:#6592e6"/><path d="M316.31,199.84V177.51H305.14v22.33H294V177.51H282.81v22.33H271.64V177.51H260.48v22.33H249.31V177.51H238.14v22.33H227V177.51H215.81v22.33A11.18,11.18,0,0,0,204.64,211H182.31v11.16h22.33v11.17H182.31v11.17h22.33v11.16H182.31v11.17h22.33V278H182.31v11.16h22.33v11.17H182.31V311.5h22.33a11.18,11.18,0,0,0,11.17,11.17V345H227V322.67h11.16V345h11.17V322.67h11.17V345h11.16V322.67h11.17V345H294V322.67h11.17V345h11.17V322.67a11.17,11.17,0,0,0,11.16-11.17h22.34V300.34H327.47V289.17h22.34V278H327.47V266.84h22.34V255.67H327.47V244.51h22.34V233.34H327.47V222.17h22.34V211H327.47A11.17,11.17,0,0,0,316.31,199.84ZM215.81,311.5V211h100.5V311.5Z" style="fill:#6592e6"/><path d="M394.47,222.17a22.33,22.33,0,1,0-22.33-22.33A22.35,22.35,0,0,0,394.47,222.17Zm0-33.49a11.17,11.17,0,1,1-11.16,11.16A11.17,11.17,0,0,1,394.47,188.68Z" style="fill:#6592e6"/><path d="M450.3,222.17A22.33,22.33,0,1,0,428,199.84,22.35,22.35,0,0,0,450.3,222.17Zm0-33.49a11.17,11.17,0,1,1-11.16,11.16A11.17,11.17,0,0,1,450.3,188.68Z" style="fill:#6592e6"/><path d="M472.64,233.34H372.14V278h100.5Zm-11.17,33.5H383.31V244.51h78.16Z" style="fill:#6592e6"/><path d="M383.31,300.34a22.33,22.33,0,1,0,22.33,22.33A22.35,22.35,0,0,0,383.31,300.34Zm0,33.5a11.17,11.17,0,1,1,11.16-11.17A11.18,11.18,0,0,1,383.31,333.84Z" style="fill:#6592e6"/><rect x="405.64" y="132.84" width="11.17" height="11.17" style="fill:#6592e6"/><rect x="427.97" y="132.84" width="11.17" height="11.17" style="fill:#6592e6"/><rect x="383.31" y="132.84" width="11.17" height="11.17" style="fill:#6592e6"/></svg>