<svg id="Layer_1" data-name="Layer 1" xmlns="http://www.w3.org/2000/svg" viewBox="0 0 410.84 262.3"><path d="M299.09,76.24h-.16l-19.37.07a6.22,6.22,0,1,0,.08,7.42L299,83.66h.13a34.71,34.71,0,1,1,.12,69.41l-24.48.09a3.69,3.69,0,0,0-2.62,1.1,3.74,3.74,0,0,0-1.08,2.63l.16,42.25a6.24,6.24,0,1,0,7.42.41l-.14-39,20.77-.08a42.13,42.13,0,1,0-.15-84.25Z" style="fill:#3b4687"/><path d="M251.08,80.24a6.22,6.22,0,1,0-9.91,5L241.59,199a6.23,6.23,0,1,0,7.43.68l-.43-114.53A6.2,6.2,0,0,0,251.08,80.24Z" style="fill:#3b4687"/><path d="M274.63,99.64a3.72,3.72,0,0,0-3.7,3.73l.11,29a3.72,3.72,0,0,0,3.72,3.7h0l21.65-.08a18.28,18.28,0,0,0,12.91-5.37,18.21,18.21,0,0,0-13.05-31ZM304,110.12a10.72,10.72,0,0,1,.05,15.23,10.86,10.86,0,0,1-7.68,3.2l-17.94.06-.08-21.56,17.94-.06A10.8,10.8,0,0,1,304,110.12Z" style="fill:#549bbf"/><path d="M136.34,74.87A3.71,3.71,0,0,0,131.53,77L84,197.68a6.21,6.21,0,1,0,7.85,6,6.11,6.11,0,0,0-.94-3.25L138.43,79.68A3.7,3.7,0,0,0,136.34,74.87Z" style="fill:#3b4687"/><path d="M217.77,197.73,169,76.82a3.71,3.71,0,1,0-6.89,2.78l48.62,120.64a6.15,6.15,0,0,0-1,3.41,6.22,6.22,0,1,0,8-5.92Z" style="fill:#3b4687"/><path d="M139.55,155.53h0l21.9-.08a3.71,3.71,0,0,0,3.48-5l-11.06-30.69a3.73,3.73,0,0,0-3.5-2.45h0a3.7,3.7,0,0,0-3.49,2.47L136,150.59a3.71,3.71,0,0,0,3.51,4.94Zm7.33-13.37,3.54-10,5.75,15.94-11.37,0Z" style="fill:#549bbf"/><path d="M182,197.78l-6-16.73a3.73,3.73,0,0,0-3.5-2.45h0l-43.71.16a3.72,3.72,0,0,0-3.49,2.48l-5.82,16.52a6.21,6.21,0,1,0,8.13,5.89,6.16,6.16,0,0,0-1.09-3.51l4.92-14,38.47-.14,5.07,14.08a6.23,6.23,0,1,0,7.06-2.33Z" style="fill:#549bbf"/><path d="M322.68,171.53a1.82,1.82,0,0,0-1.1.46,2.52,2.52,0,0,0-2.84.26c-1.34-.17-1.77.19-2.1.6-.3,0-2.21-.3-3.08,1-2.2-.26-2.89,1.29-2.11,2.74a1.9,1.9,0,0,0,.14,2.7c-.37.74-.14,1.54.73,2.51a2.13,2.13,0,0,0,1,2.34c-.15,1.42,1.3,2.25,1.74,2.54.16.83.51,1.61,2.17,2,.28,1.23,1.27,1.44,2.24,1.7-3.19,1.86-5.93,4.3-5.92,10.3l-.46.83a10.15,10.15,0,0,0-1.81,15.21,28.2,28.2,0,0,0,1.41,4.58,11.14,11.14,0,0,0,6.95,8.89,23.38,23.38,0,0,0,6.65,3.77,11,11,0,0,0,8.17,3.67s5.72-1,8.3-3.67a23.66,23.66,0,0,0,6.65-3.77,11.16,11.16,0,0,0,6.95-8.89,28.23,28.23,0,0,0,1.4-4.58,10.15,10.15,0,0,0-1.8-15.21l-.47-.83c0-6-2.72-8.44-5.91-10.3,1-.26,2-.47,2.23-1.7,1.66-.43,2-1.21,2.18-2,.43-.29,1.89-1.12,1.73-2.54a2.12,2.12,0,0,0,1-2.34c.88-1,1.11-1.77.73-2.51a1.89,1.89,0,0,0,.14-2.7c.79-1.45.09-3-2.11-2.74-.87-1.31-2.78-1-3.07-1-.33-.41-.77-.77-2.11-.6a2.52,2.52,0,0,0-2.84-.26c-1.19-.94-2-.19-2.87.09-1.44-.47-1.77.18-2.48.44-1.56-.33-2,.39-2.79,1.15l-.88,0c-2.37,1.4-3.54,4.24-4,5.7-.42-1.46-1.59-4.3-4-5.7l-.87,0c-.75-.76-1.23-1.48-2.8-1.15-.71-.26-1-.91-2.48-.44a5.6,5.6,0,0,0-1.77-.55"/><path d="M318,177.67c6.28,3.23,9.93,5.85,11.93,8.08-1,4.11-6.36,4.3-8.32,4.18a1.43,1.43,0,0,0,.85-.75c-.49-.35-2.23,0-3.44-.72a1.13,1.13,0,0,0,.9-.53,9.84,9.84,0,0,1-3.1-1.29,1.77,1.77,0,0,0,1.27-.27,11.75,11.75,0,0,1-3-1.84c.53,0,1.1,0,1.27-.2A11.72,11.72,0,0,1,314,182.4c.74.09,1.06,0,1.24-.12a9.58,9.58,0,0,1-2-2.24,1.5,1.5,0,0,0,1.42,0c-.24-.54-1.28-.86-1.87-2.14.58.06,1.19.13,1.32,0a6.22,6.22,0,0,0-1.19-2.35,22.2,22.2,0,0,0,3-.1l-.77-.79a6,6,0,0,1,3.36.34c.41-.32,0-.73-.5-1.14a12.7,12.7,0,0,1,2.81.7c.45-.4-.29-.81-.65-1.22a7.09,7.09,0,0,1,2.94,1.16c.49-.47,0-.87-.3-1.27a7.21,7.21,0,0,1,2.47,1.58c.22-.3.56-.51.15-1.23a6.1,6.1,0,0,1,2,1.72c.53-.34.32-.8.32-1.22a19.36,19.36,0,0,1,2.14,2.24,1.92,1.92,0,0,0,.37-1c2.11,2.05,5.1,7.22.77,9.27a40.92,40.92,0,0,0-13-6.91h0" style="fill:#75a928"/><path d="M351.29,177.67c-6.27,3.23-9.93,5.85-11.93,8.08,1,4.11,6.37,4.3,8.33,4.18a1.48,1.48,0,0,1-.86-.75c.49-.35,2.23,0,3.45-.72a1.17,1.17,0,0,1-.91-.53,9.81,9.81,0,0,0,3.11-1.29,1.76,1.76,0,0,1-1.27-.27,11.93,11.93,0,0,0,3-1.84c-.54,0-1.11,0-1.27-.2a11.72,11.72,0,0,0,2.39-1.93c-.75.09-1.06,0-1.24-.12a9.58,9.58,0,0,0,2-2.24,1.5,1.5,0,0,1-1.42,0c.24-.54,1.27-.86,1.87-2.14-.58.06-1.2.13-1.32,0a6.15,6.15,0,0,1,1.19-2.35,22.48,22.48,0,0,1-3.05-.1l.77-.79a6,6,0,0,0-3.36.34c-.4-.32,0-.73.5-1.14a12.08,12.08,0,0,0-2.8.7c-.45-.4.29-.81.65-1.22a7.25,7.25,0,0,0-2.94,1.15c-.49-.46,0-.86.3-1.27a7.22,7.22,0,0,0-2.47,1.59c-.23-.3-.57-.51-.15-1.23a6.25,6.25,0,0,0-2,1.72c-.52-.34-.31-.8-.31-1.22a19.36,19.36,0,0,0-2.14,2.24,2,2,0,0,1-.37-1c-2.12,2.05-5.11,7.22-.77,9.27a40.81,40.81,0,0,1,13-6.91h0" style="fill:#75a928"/><path d="M342.24,219.47c0,3.83-3.33,6.95-7.48,7a7.27,7.27,0,0,1-7.57-6.91v-.07c0-3.83,3.33-6.95,7.49-7s7.54,3.07,7.56,6.9v.07" style="fill:#bc1142"/><path d="M330.36,199.66c3.12,2,3.68,6.67,1.26,10.33s-6.92,5-10,2.95-3.68-6.67-1.26-10.34,6.92-5,10-2.94" style="fill:#bc1142"/><path d="M338.78,199.29c-3.12,2-3.68,6.67-1.26,10.34s6.92,5,10,2.94,3.68-6.67,1.26-10.34-6.92-5-10-2.94" style="fill:#bc1142"/><path d="M314.78,203c3.37-.9,1.14,13.93-1.6,12.71-3-2.42-4-9.52,1.6-12.71" style="fill:#bc1142"/><path d="M353.68,202.81c-3.37-.9-1.14,13.92,1.6,12.71,3-2.43,4-9.52-1.6-12.71" style="fill:#bc1142"/><path d="M342.24,191.77c5.81-1,10.64,2.47,10.45,8.77-.19,2.41-12.59-8.41-10.45-8.77" style="fill:#bc1142"/><path d="M326.19,191.59c-5.8-1-10.64,2.47-10.44,8.76.19,2.42,12.58-8.41,10.44-8.76" style="fill:#bc1142"/><path d="M334.54,190.12c-3.47-.09-6.8,2.57-6.8,4.11,0,1.88,2.74,3.8,6.82,3.85s6.83-1.54,6.85-3.47c0-2.2-3.8-4.53-6.87-4.49h0" style="fill:#bc1142"/><path d="M334.75,228.6c3-.13,7.08,1,7.08,2.44s-3.67,4.64-7.28,4.58c-3.74.16-7.4-3.06-7.35-4.18-.06-1.64,4.55-2.92,7.55-2.84" style="fill:#bc1142"/><path d="M323.59,219.91c2.15,2.59,3.13,7.15,1.33,8.49-1.7,1-5.82.6-8.75-3.61-2-3.54-1.73-7.13-.34-8.19,2.08-1.26,5.29.44,7.76,3.31h0" style="fill:#bc1142"/><path d="M345.48,219.09c-2.33,2.72-3.62,7.7-1.93,9.3,1.63,1.24,6,1.07,9.21-3.4,2.34-3,1.55-8,.22-9.34-2-1.53-4.84.43-7.5,3.44h0" style="fill:#bc1142"/><path d="M34.16,54.16c0,21.37,28.42,30,43.92,10.21a2.13,2.13,0,0,1,3.35,0c15.87,20.38,43.15,10.41,43.15-10.24s-27-31.08-43.1-10.31a2.14,2.14,0,0,1-3.4,0c-15.3-20.53-43.92-11-43.92,10.35Zm8.15,0c0-15.77,21.89-21,32.56-1.07a2.24,2.24,0,0,1,0,2.13c-10.91,18.91-32.53,14.7-32.53-1.06Zm42.48,1a2.19,2.19,0,0,1,0-1.92c9.69-20.25,32.41-14.33,32.16,1C116.94,69.45,94.25,74.38,84.79,55.12Z" style="stroke:#000;stroke-miterlimit:10"/><rect x="50.72" y="51.87" width="13.5" height="4.33" rx="2.16" style="stroke:#000;stroke-miterlimit:10"/><path d="M97.45,56.2H97.2A2.17,2.17,0,0,1,95,54v-.26a2.17,2.17,0,0,1,2.17-2.16h.25a2.17,2.17,0,0,0,2.17-2.17V49.2A2.17,2.17,0,0,1,101.78,47H102a2.17,2.17,0,0,1,2.16,2.17v.25a2.17,2.17,0,0,0,2.17,2.17h0a2.16,2.16,0,0,1,2.16,2.16V54a2.16,2.16,0,0,1-2.16,2.16h0a2.17,2.17,0,0,0-2.17,2.17h0A2.16,2.16,0,0,1,102,60.53h-.26a2.16,2.16,0,0,1-2.16-2.16h0A2.17,2.17,0,0,0,97.45,56.2Z" style="stroke:#000;stroke-miterlimit:10"/></svg>