<svg id="Layer_1" data-name="Layer 1" xmlns="http://www.w3.org/2000/svg" viewBox="0 0 1654.46 533.57"><path d="M146.31,198.38a4.06,4.06,0,0,0-5.25,2.29L89.14,332.4a6.79,6.79,0,1,0,7.54,3L148.6,203.64A4.06,4.06,0,0,0,146.31,198.38Z" style="fill:#3b4687"/><path d="M235.17,332.46,182,200.51a4,4,0,0,0-7.51,3l53.05,131.65a6.79,6.79,0,1,0,7.64-2.73Z" style="fill:#3b4687"/><path d="M149.81,286.41h0l23.89-.09a4.05,4.05,0,0,0,3.8-5.43L165.45,247.4a4.06,4.06,0,0,0-3.81-2.68h0a4.06,4.06,0,0,0-3.81,2.71L146,281a4.06,4.06,0,0,0,3.82,5.4Zm8-14.59,3.86-11,6.27,17.4-12.41,0Z" style="fill:#549bbf"/><path d="M196.12,332.51l-6.58-18.26a4,4,0,0,0-3.81-2.68h0l-47.7.18a4.06,4.06,0,0,0-3.81,2.71l-6.35,18a6.77,6.77,0,1,0,7.68,2.6l5.37-15.25,42-.15,5.54,15.36a6.72,6.72,0,0,0-1.22,3.87,6.78,6.78,0,1,0,8.91-6.41Z" style="fill:#549bbf"/><path d="M293.48,337.34a6.78,6.78,0,1,0,11.31-5l-.46-125.16a6.77,6.77,0,1,0-8.1,0l.46,124.39A6.77,6.77,0,0,0,293.48,337.34Z" style="fill:#3b4687"/><path d="M402.69,330.63,374.4,287a45.87,45.87,0,0,0-15-89.36h-.17l-21.34.08a6.78,6.78,0,1,0,.09,8.1l21.28-.08h.14a37.78,37.78,0,0,1,7.74,74.83,4.06,4.06,0,0,0-2.59,6.17l31.13,48.05a6.78,6.78,0,1,0,7-4.12Z" style="fill:#3b4687"/><path d="M332.88,262.78h0l23.62-.08a19.9,19.9,0,0,0,14.09-5.86,19.76,19.76,0,0,0-.11-28.08A19.89,19.89,0,0,0,356.45,223h-.08l-23.62.08a4.06,4.06,0,0,0-4,4.07l.12,31.58A4,4,0,0,0,332.88,262.78Zm23.52-31.66a11.91,11.91,0,0,1,8.41,3.42,11.64,11.64,0,0,1,.07,16.57,11.93,11.93,0,0,1-8.39,3.49l-19.57.07-.09-23.48Z" style="fill:#549bbf"/><path d="M326.09,337.34a6.78,6.78,0,1,0,11-5.26L337,297.93l24.31,36.29a6.72,6.72,0,0,0-.8,3.12,6.79,6.79,0,1,0,8.21-6.62l-31.83-47.51a4.06,4.06,0,0,0-3.37-1.8h-.64a4.05,4.05,0,0,0-4,4.07l.17,46.31A6.78,6.78,0,0,0,326.09,337.34Z" style="fill:#549bbf"/><path d="M570.24,316.17a68.75,68.75,0,0,1-47.38,18.72,3.56,3.56,0,0,0-.8.08l-13.59,0a6.79,6.79,0,1,0,0,8.1l14.38-.05a3.57,3.57,0,0,0,.8-.09A76.75,76.75,0,0,0,575.82,322a68.84,68.84,0,0,0,21.89-50.47c-.15-39.12-33.79-70.85-75.06-70.85h-.3l-14,.05a6.77,6.77,0,1,0,.35,8.1l13.72-.05h.27c36.82,0,66.83,28.12,67,62.79A60.84,60.84,0,0,1,570.24,316.17Z" style="fill:#3b4687"/><path d="M473.57,333.67l-.46-123.24a6.78,6.78,0,1,0-8.1,0l.46,123.24a6.78,6.78,0,1,0,8.1,0Z" style="fill:#3b4687"/><path d="M527.44,233.36h-.13l-24.23.09a4.05,4.05,0,0,0-4,4.07l.25,68.93a4,4,0,0,0,4.05,4h0l24.22-.09a4.34,4.34,0,0,0,.63-.05,35.11,35.11,0,0,0,25.11-11.46,40.16,40.16,0,0,0-.21-54.25A35.08,35.08,0,0,0,527.44,233.36Zm19.95,60a27.06,27.06,0,0,1-19.83,8.88,3.64,3.64,0,0,0-.57,0l-19.6.07-.22-60.82,20.17-.08h.1a27,27,0,0,1,19.79,8.74,32,32,0,0,1,.16,43.17Z" style="fill:#549bbf"/><path d="M775.35,198.64a6.76,6.76,0,0,0-4,12.23l.27,71.82c.11,29.8-24.32,54.13-54.44,54.25H717c-30,0-54.52-24.12-54.63-53.85l-.27-72.27a6.78,6.78,0,1,0-8.1,0l.27,72.27C654.36,317.31,682.48,345,717,345h.24c34.59-.13,62.63-28.12,62.51-62.38l-.27-71.86a6.76,6.76,0,0,0-4.09-12.16Z" style="fill:#3b4687"/><path d="M697.35,205.42a6.78,6.78,0,1,0-10.81,5.43l.27,72.15A30.07,30.07,0,0,0,717,312.79h.11a30.07,30.07,0,0,0,30-30l-.27-71.9a6.78,6.78,0,1,0-8.1-.09l.27,72a22,22,0,0,1-22,21.88H717A22,22,0,0,1,694.91,283l-.27-72.15A6.76,6.76,0,0,0,697.35,205.42Z" style="fill:#549bbf"/><path d="M835.63,339.42a6.79,6.79,0,1,0,11.07-5.22l-.46-64.29a6.81,6.81,0,1,0-8.11-.38l.47,64.29A6.77,6.77,0,0,0,835.63,339.42Z" style="fill:#3b4687"/><path d="M867.93,339.42A6.79,6.79,0,1,0,879,334.2l-.46-64.29a6.81,6.81,0,1,0-8.11-.38l.46,64.29A6.8,6.8,0,0,0,867.93,339.42Z" style="fill:#549bbf"/><path d="M935,339.8a6.78,6.78,0,1,0,10.81-5.42l-.46-125a6.78,6.78,0,1,0-8.11-.73l.47,125.76A6.74,6.74,0,0,0,935,339.8Z" style="fill:#3b4687"/><path d="M1036,339.8a6.78,6.78,0,1,0,11.32-5L1046.87,209a6.78,6.78,0,1,0-8.1,0l.46,125A6.75,6.75,0,0,0,1036,339.8Z" style="fill:#3b4687"/><path d="M1012.32,333.15l-34-67.21a4.05,4.05,0,0,0-7.67,1.83l0,28.93.13,37.58a6.8,6.8,0,1,0,8.11.23l-.14-37.82,0-12,26.32,52a6.72,6.72,0,0,0-.79,3.12,6.78,6.78,0,1,0,8.08-6.65Z" style="fill:#549bbf"/><path d="M972.35,210.42,1006.87,278a4,4,0,0,0,3.61,2.2,3.7,3.7,0,0,0,1-.12,4.05,4.05,0,0,0,3.07-4l-.53-29.11-.14-37.83a6.77,6.77,0,1,0-8.1.61l.14,37.31.21,11.65L979.59,206.8a6.64,6.64,0,0,0,.75-3,6.78,6.78,0,1,0-8,6.66Z" style="fill:#549bbf"/><path d="M1197.59,341.11a6.8,6.8,0,1,0,1,8.09c32.07-8.92,54.78-38.1,54.66-71.32-.12-30.54-19.76-58-48.43-68.77a6.75,6.75,0,1,0-2.62,7.66c25.44,9.63,42.84,34,42.94,61.14C1245.28,307.08,1225.59,332.8,1197.59,341.11Z" style="fill:#3b4687"/><path d="M1156.88,215.8a6.77,6.77,0,1,0-1.7-7.93c-31,9.77-52.21,38-52.09,70.57.12,32.14,21.25,60.22,52,70a6.82,6.82,0,1,0,2.07-7.83c-27.15-8.79-45.82-33.7-45.92-62.16C1111.08,249.72,1129.61,224.71,1156.88,215.8Z" style="fill:#3b4687"/><path d="M1178.35,322.54c24.86-.09,45-20.08,44.92-44.55s-20.3-44.2-45.08-44.2H1178a45.13,45.13,0,0,0-31.81,13.09,43.7,43.7,0,0,0-13.12,31.45c.09,24.41,20.3,44.21,45.09,44.21Zm-37.16-44.24a35.71,35.71,0,0,1,10.72-25.67,37.11,37.11,0,0,1,26.14-10.74h.14c20.33,0,36.9,16.18,37,36.14s-16.46,36.33-36.86,36.41h-.13C1157.84,314.44,1141.27,298.25,1141.19,278.3Z" style="fill:#549bbf"/><path d="M1452.83,206.2h-.17l-21.14.08a6.78,6.78,0,1,0,.09,8.1l21.08-.08h.14A37.87,37.87,0,1,1,1453,290l-26.72.1a4.06,4.06,0,0,0-4,4.07l.17,46.1a6.82,6.82,0,1,0,8.11.46l-.16-42.54,22.67-.08a46,46,0,1,0-.17-91.95Z" style="fill:#3b4687"/><path d="M1400.44,210.56a6.79,6.79,0,1,0-10.82,5.43l.47,124.21a6.79,6.79,0,1,0,8.1.73l-.46-125A6.78,6.78,0,0,0,1400.44,210.56Z" style="fill:#3b4687"/><path d="M1426.14,231.74a4.1,4.1,0,0,0-2.86,1.2,4,4,0,0,0-1.17,2.87l.12,31.63a4,4,0,0,0,4,4h0l23.63-.09a19.87,19.87,0,0,0,14.08-5.86,19.87,19.87,0,0,0-14.23-33.87Zm32.07,11.44a11.71,11.71,0,0,1,.06,16.62,11.84,11.84,0,0,1-8.39,3.48l-19.57.07-.08-23.52,19.57-.07A11.73,11.73,0,0,1,1458.21,243.18Z" style="fill:#549bbf"/><path d="M813.36,227.85c0,21.37,28.42,30,43.92,10.21a2.14,2.14,0,0,1,3.35,0c15.87,20.38,43.14,10.41,43.14-10.24s-27-31.08-43.1-10.31a2.14,2.14,0,0,1-3.4,0c-15.3-20.53-43.91-11-43.91,10.34Zm8.15,0c0-15.76,21.89-21,32.55-1.07a2.21,2.21,0,0,1,0,2.13c-10.9,18.92-32.52,14.7-32.52-1.06Zm42.47,1a2.26,2.26,0,0,1,0-1.92c9.7-20.25,32.41-14.33,32.16,1C896.13,243.14,873.44,248.07,864,228.81Z" style="stroke:#000;stroke-miterlimit:10"/><rect x="829.91" y="225.56" width="13.5" height="4.33" rx="2.16" style="stroke:#000;stroke-miterlimit:10"/><path d="M876.65,229.89h-.26a2.16,2.16,0,0,1-2.16-2.16v-.26a2.16,2.16,0,0,1,2.16-2.16h.26a2.17,2.17,0,0,0,2.16-2.17v-.25a2.17,2.17,0,0,1,2.17-2.17h.25a2.17,2.17,0,0,1,2.17,2.17v.25a2.17,2.17,0,0,0,2.16,2.17h0a2.17,2.17,0,0,1,2.17,2.16v.26a2.17,2.17,0,0,1-2.17,2.16h0a2.17,2.17,0,0,0-2.16,2.17h0a2.17,2.17,0,0,1-2.17,2.16H881a2.17,2.17,0,0,1-2.17-2.16h0A2.17,2.17,0,0,0,876.65,229.89Z" style="stroke:#000;stroke-miterlimit:10"/><path d="M1522,342.71a6.79,6.79,0,1,0,11.07-5.22l-.46-64.29a6.82,6.82,0,1,0-8.1-.38l.46,64.28A6.8,6.8,0,0,0,1522,342.71Z" style="fill:#3b4687"/><path d="M1554.3,342.71a6.79,6.79,0,1,0,11.07-5.22l-.46-64.3a6.81,6.81,0,1,0-8.1-.37l.46,64.29A6.77,6.77,0,0,0,1554.3,342.71Z" style="fill:#549bbf"/><path d="M1532.54,180.84a1.83,1.83,0,0,0-1.1.46,2.5,2.5,0,0,0-2.84.27c-1.34-.18-1.78.18-2.11.6-.29,0-2.2-.3-3.08,1-2.19-.26-2.89,1.29-2.1,2.74a1.9,1.9,0,0,0,.13,2.71c-.37.74-.14,1.54.74,2.51a2.12,2.12,0,0,0,1,2.34c-.16,1.42,1.3,2.24,1.73,2.54.17.82.52,1.6,2.18,2,.27,1.24,1.27,1.45,2.23,1.71-3.19,1.86-5.93,4.3-5.91,10.29l-.47.84a10.14,10.14,0,0,0-1.8,15.2,27.92,27.92,0,0,0,1.4,4.58,11.13,11.13,0,0,0,7,8.89,23.43,23.43,0,0,0,6.65,3.78,11.09,11.09,0,0,0,8.18,3.67s5.72-1,8.29-3.67a23.16,23.16,0,0,0,6.65-3.78,11.11,11.11,0,0,0,7-8.89,27.89,27.89,0,0,0,1.41-4.58,10.14,10.14,0,0,0-1.81-15.2l-.46-.84c0-6-2.73-8.44-5.92-10.29,1-.26,2-.47,2.24-1.71,1.66-.43,2-1.21,2.17-2,.44-.29,1.89-1.12,1.74-2.53a2.14,2.14,0,0,0,1-2.34c.87-1,1.1-1.77.73-2.51a1.91,1.91,0,0,0,.14-2.71c.78-1.45.09-3-2.11-2.74-.88-1.3-2.78-1-3.08-1-.33-.42-.76-.78-2.1-.6a2.51,2.51,0,0,0-2.84-.27c-1.19-.94-2-.19-2.88.1-1.43-.47-1.76.17-2.47.43-1.57-.33-2,.39-2.8,1.16l-.87,0c-2.37,1.39-3.55,4.24-4,5.7-.42-1.46-1.59-4.31-4-5.7l-.88,0c-.75-.77-1.23-1.49-2.8-1.16-.7-.26-1-.9-2.47-.43a5.38,5.38,0,0,0-1.77-.56"/><path d="M1527.83,187c6.28,3.24,9.93,5.86,11.93,8.09-1,4.1-6.37,4.29-8.32,4.18a1.47,1.47,0,0,0,.85-.76c-.49-.34-2.23,0-3.44-.71a1.15,1.15,0,0,0,.9-.54,9.68,9.68,0,0,1-3.11-1.29,1.75,1.75,0,0,0,1.27-.26,12,12,0,0,1-3-1.84c.53,0,1.1,0,1.27-.2a11.17,11.17,0,0,1-2.39-1.94c.74.09,1,0,1.23-.12a9.38,9.38,0,0,1-2-2.24,1.5,1.5,0,0,0,1.42,0c-.24-.55-1.27-.87-1.87-2.14.58.05,1.2.13,1.32,0a6.34,6.34,0,0,0-1.18-2.36,20.72,20.72,0,0,0,3-.1L1525,184a6.06,6.06,0,0,1,3.36.33c.4-.32,0-.72-.5-1.13a11.59,11.59,0,0,1,2.8.7c.45-.41-.29-.82-.65-1.22a7,7,0,0,1,2.94,1.15c.49-.47,0-.86-.3-1.27a7.37,7.37,0,0,1,2.48,1.59c.22-.3.56-.52.15-1.24a6.32,6.32,0,0,1,2,1.72c.53-.33.31-.79.32-1.22a19.25,19.25,0,0,1,2.13,2.24,1.87,1.87,0,0,0,.37-1c2.12,2.05,5.11,7.22.77,9.27a40.83,40.83,0,0,0-13-6.92h0" style="fill:#75a928"/><path d="M1561.15,187c-6.28,3.24-9.93,5.86-11.93,8.09,1,4.1,6.37,4.29,8.32,4.18a1.47,1.47,0,0,1-.85-.76c.49-.34,2.23,0,3.44-.71a1.13,1.13,0,0,1-.9-.54,9.77,9.77,0,0,0,3.11-1.29,1.74,1.74,0,0,1-1.27-.26,12.17,12.17,0,0,0,3-1.84c-.53,0-1.1,0-1.27-.2a11.43,11.43,0,0,0,2.39-1.94c-.74.09-1.06,0-1.24-.12a9.38,9.38,0,0,0,2-2.24,1.5,1.5,0,0,1-1.42,0c.24-.55,1.28-.87,1.87-2.14-.58.05-1.19.13-1.32,0a6.35,6.35,0,0,1,1.19-2.36,20.63,20.63,0,0,1-3-.1l.77-.78a6.05,6.05,0,0,0-3.36.33c-.41-.32,0-.72.5-1.14a12.29,12.29,0,0,0-2.81.71c-.45-.41.29-.82.65-1.22a7.1,7.1,0,0,0-2.94,1.15c-.48-.47,0-.86.3-1.27a7.07,7.07,0,0,0-2.47,1.59c-.22-.3-.56-.52-.15-1.24a6.21,6.21,0,0,0-2,1.72c-.53-.33-.32-.79-.32-1.22a19.36,19.36,0,0,0-2.14,2.24,1.87,1.87,0,0,1-.37-1c-2.11,2.05-5.1,7.22-.76,9.27a40.59,40.59,0,0,1,13-6.92h0" style="fill:#75a928"/><path d="M1552.09,228.79c0,3.83-3.33,7-7.48,7s-7.54-3.07-7.56-6.9v-.07a7.25,7.25,0,0,1,7.48-7c4.16,0,7.54,3.07,7.56,6.9v.08" style="fill:#bc1142"/><path d="M1540.22,209c3.11,2,3.68,6.67,1.25,10.34s-6.91,5-10,2.94-3.68-6.67-1.25-10.34,6.91-5,10-2.94" style="fill:#bc1142"/><path d="M1548.63,208.6c-3.12,2-3.68,6.67-1.25,10.34s6.91,5,10,2.94,3.68-6.67,1.25-10.34-6.91-5-10-2.94" style="fill:#bc1142"/><path d="M1524.64,212.31c3.36-.9,1.14,13.92-1.6,12.71-3-2.43-4-9.52,1.6-12.71" style="fill:#bc1142"/><path d="M1563.53,212.12c-3.37-.9-1.14,13.93,1.6,12.71,3-2.42,4-9.52-1.6-12.71" style="fill:#bc1142"/><path d="M1552.1,201.09c5.8-1,10.64,2.46,10.44,8.76-.19,2.42-12.58-8.41-10.44-8.76" style="fill:#bc1142"/><path d="M1536.05,200.9c-5.81-1-10.64,2.47-10.45,8.77.2,2.41,12.59-8.41,10.45-8.77" style="fill:#bc1142"/><path d="M1544.39,199.43c-3.46-.09-6.79,2.57-6.8,4.12,0,1.88,2.74,3.8,6.83,3.85s6.83-1.54,6.84-3.48c0-2.19-3.79-4.52-6.87-4.49h0" style="fill:#bc1142"/><path d="M1544.6,237.91c3-.13,7.08,1,7.09,2.44s-3.68,4.65-7.29,4.58c-3.73.16-7.4-3.06-7.35-4.17-.06-1.64,4.55-2.92,7.55-2.85" style="fill:#bc1142"/><path d="M1533.44,229.22c2.15,2.6,3.13,7.15,1.34,8.49-1.7,1-5.83.61-8.76-3.61-2-3.53-1.72-7.13-.33-8.18,2.07-1.27,5.28.44,7.75,3.3h0" style="fill:#bc1142"/><path d="M1555.34,228.4c-2.33,2.73-3.63,7.7-1.93,9.3,1.62,1.25,6,1.08,9.2-3.39,2.34-3,1.56-8,.22-9.34-2-1.54-4.83.42-7.49,3.43h0" style="fill:#bc1142"/></svg>