<svg id="Layer_1" data-name="Layer 1" xmlns="http://www.w3.org/2000/svg" viewBox="0 0 633.44 485.52"><rect x="88.21" y="14.26" width="457.01" height="457.01" rx="81.04" style="fill:#fff"/><path d="M427.69,157.1h-.2l-24.94.09a8,8,0,1,0,.1,9.56l24.87-.09h.17a44.69,44.69,0,1,1,.16,89.37l-31.53.12a4.75,4.75,0,0,0-3.37,1.41,4.82,4.82,0,0,0-1.39,3.39l.21,54.4a8,8,0,1,0,9.56.53l-.19-50.19,26.75-.1a54.25,54.25,0,1,0-.2-108.49Z" style="fill:#3b4687"/><path d="M365.87,162.25a8,8,0,1,0-12.76,6.4l.55,146.56a8,8,0,1,0,9.55.87l-.54-147.47A8,8,0,0,0,365.87,162.25Z" style="fill:#3b4687"/><path d="M396.2,187.24a4.78,4.78,0,0,0-4.76,4.79l.14,37.32a4.78,4.78,0,0,0,4.78,4.77h0l27.87-.11a23.46,23.46,0,0,0,16.62-6.91,23.44,23.44,0,0,0-16.8-40ZM434,200.73a13.81,13.81,0,0,1,.07,19.61,13.94,13.94,0,0,1-9.9,4.11l-23.09.09-.1-27.76,23.09-.09A13.89,13.89,0,0,1,434,200.73Z" style="fill:#549bbf"/><path d="M229,155.34a4.78,4.78,0,0,0-6.2,2.69L161.53,313.47a8,8,0,1,0,10.11,7.69,7.9,7.9,0,0,0-1.22-4.19l61.26-155.44A4.77,4.77,0,0,0,229,155.34Z" style="fill:#3b4687"/><path d="M333.84,313.54,271.09,157.85a4.78,4.78,0,1,0-8.87,3.57l62.61,155.34a8,8,0,1,0,9-3.22Z" style="fill:#3b4687"/><path d="M233.11,259.2h0l28.2-.1a4.78,4.78,0,0,0,4.48-6.4l-14.24-39.52a4.79,4.79,0,0,0-4.5-3.16h0a4.76,4.76,0,0,0-4.49,3.19l-13.95,39.62a4.78,4.78,0,0,0,4.5,6.37ZM242.56,242,247.12,229l7.4,20.52-14.65.05Z" style="fill:#549bbf"/><path d="M287.76,313.6,280,292.06a4.79,4.79,0,0,0-4.5-3.16h0l-56.28.21a4.76,4.76,0,0,0-4.49,3.19l-7.49,21.28a8,8,0,1,0,9.06,3.06l6.33-18,49.54-.18,6.53,18.13a8,8,0,1,0,9.08-3Z" style="fill:#549bbf"/><path d="M415,333a2.4,2.4,0,0,0-1.36.56,3.12,3.12,0,0,0-3.49.33c-1.64-.21-2.18.23-2.58.74-.37,0-2.71-.37-3.78,1.23-2.71-.31-3.56,1.59-2.59,3.37-.55.86-1.13,1.7.17,3.33-.46.91-.18,1.89.9,3.08a2.59,2.59,0,0,0,1.27,2.87c-.19,1.75,1.6,2.76,2.13,3.12.21,1,.64,2,2.68,2.51.33,1.52,1.56,1.78,2.75,2.09-3.93,2.29-7.29,5.29-7.27,12.66l-.58,1A12.47,12.47,0,0,0,401,388.56a34.31,34.31,0,0,0,1.72,5.62,13.69,13.69,0,0,0,8.54,10.93,29.07,29.07,0,0,0,8.17,4.64,13.61,13.61,0,0,0,10.05,4.51c.05,0,7-1.25,10.2-4.51a28.93,28.93,0,0,0,8.17-4.64,13.69,13.69,0,0,0,8.54-10.93,35.28,35.28,0,0,0,1.73-5.62,12.48,12.48,0,0,0-2.22-18.69l-.58-1c0-7.36-3.34-10.36-7.27-12.65,1.19-.31,2.42-.58,2.75-2.09,2-.53,2.47-1.49,2.68-2.51.53-.36,2.32-1.37,2.13-3.12a2.59,2.59,0,0,0,1.27-2.87c1.08-1.19,1.36-2.18.91-3.08,1.29-1.63.71-2.47.16-3.33,1-1.78.12-3.69-2.59-3.37-1.07-1.6-3.41-1.23-3.78-1.23-.4-.51-.94-.95-2.58-.74a3.12,3.12,0,0,0-3.49-.33c-1.46-1.15-2.43-.22-3.53.12-1.77-.57-2.18.22-3.05.54-1.92-.41-2.51.48-3.43,1.42l-1.08,0c-2.91,1.71-4.35,5.2-4.87,7-.51-1.8-1.95-5.29-4.86-7l-1.07,0c-.93-.94-1.52-1.83-3.45-1.42-.86-.32-1.27-1.11-3-.54A7,7,0,0,0,415,333"/><path d="M409.19,340.51c7.71,4,12.2,7.19,14.66,9.93-1.26,5.05-7.83,5.28-10.23,5.14a1.81,1.81,0,0,0,1.05-.93c-.6-.42-2.74,0-4.23-.88a1.4,1.4,0,0,0,1.11-.66,12,12,0,0,1-3.82-1.58,2.12,2.12,0,0,0,1.56-.33,14.84,14.84,0,0,1-3.66-2.25c.66,0,1.36,0,1.57-.25a14.21,14.21,0,0,1-2.94-2.38c.91.11,1.3,0,1.52-.15a11.84,11.84,0,0,1-2.51-2.75,1.85,1.85,0,0,0,1.75,0c-.3-.67-1.57-1.06-2.3-2.63.71.07,1.47.16,1.62,0a7.58,7.58,0,0,0-1.46-2.89,25,25,0,0,0,3.74-.13l-.94-1a7.4,7.4,0,0,1,4.12.41c.5-.39,0-.89-.61-1.4a14.64,14.64,0,0,1,3.45.87c.55-.5-.36-1-.8-1.5a8.8,8.8,0,0,1,3.61,1.41c.6-.57,0-1.06-.37-1.56a9,9,0,0,1,3,2c.27-.36.69-.63.19-1.52a7.91,7.91,0,0,1,2.42,2.12c.65-.41.39-1,.39-1.5a24.87,24.87,0,0,1,2.63,2.75,2.27,2.27,0,0,0,.45-1.21c2.6,2.52,6.27,8.88.94,11.4a50.07,50.07,0,0,0-15.95-8.5h0" style="fill:#75a928"/><path d="M450.14,340.51c-7.72,4-12.21,7.19-14.66,9.93,1.25,5.05,7.82,5.28,10.22,5.14a1.76,1.76,0,0,1-1-.93c.6-.42,2.73,0,4.23-.88a1.37,1.37,0,0,1-1.11-.66,12.1,12.1,0,0,0,3.82-1.58,2.11,2.11,0,0,1-1.56-.33,14.79,14.79,0,0,0,3.65-2.25c-.65,0-1.36,0-1.56-.25a14.48,14.48,0,0,0,2.94-2.38c-.92.11-1.3,0-1.52-.15a11.58,11.58,0,0,0,2.5-2.75,1.83,1.83,0,0,1-1.74,0c.29-.67,1.56-1.06,2.3-2.63-.72.07-1.47.16-1.63,0a7.72,7.72,0,0,1,1.46-2.89,26.69,26.69,0,0,1-3.74-.13l.95-1a7.45,7.45,0,0,0-4.13.41c-.5-.39,0-.89.62-1.4a14.52,14.52,0,0,0-3.45.87c-.56-.5.36-1,.8-1.5a8.92,8.92,0,0,0-3.62,1.41c-.59-.57,0-1.06.37-1.56a9,9,0,0,0-3,2c-.28-.36-.7-.63-.19-1.52a7.69,7.69,0,0,0-2.42,2.12c-.65-.41-.39-1-.39-1.5a24,24,0,0,0-2.63,2.75,2.27,2.27,0,0,1-.45-1.21c-2.6,2.52-6.28,8.88-.95,11.4a49.93,49.93,0,0,1,16-8.5h0" style="fill:#75a928"/><path d="M439,391.88c0,4.71-4.09,8.54-9.2,8.57s-9.26-3.77-9.29-8.48v-.09c0-4.71,4.09-8.55,9.2-8.57s9.26,3.77,9.29,8.48v.09" style="fill:#bc1142"/><path d="M424.42,367.53c3.83,2.51,4.52,8.2,1.54,12.7s-8.5,6.13-12.33,3.62-4.52-8.2-1.54-12.7,8.49-6.13,12.33-3.62" style="fill:#bc1142"/><path d="M434.75,367.07c-3.83,2.51-4.52,8.2-1.54,12.71s8.5,6.13,12.33,3.62,4.52-8.2,1.54-12.71-8.5-6.13-12.33-3.62" style="fill:#bc1142"/><path d="M405.27,371.63c4.14-1.11,1.4,17.11-2,15.61-3.7-3-4.89-11.69,2-15.61" style="fill:#bc1142"/><path d="M453.06,371.4c-4.13-1.1-1.39,17.11,2,15.62,3.7-3,4.89-11.7-2-15.62" style="fill:#bc1142"/><path d="M439,357.84c7.14-1.21,13.08,3,12.84,10.77-.24,3-15.47-10.33-12.84-10.77" style="fill:#bc1142"/><path d="M419.29,357.61c-7.13-1.2-13.07,3-12.83,10.77.23,3,15.46-10.33,12.83-10.77" style="fill:#bc1142"/><path d="M429.54,355.81c-4.26-.12-8.34,3.16-8.35,5.05,0,2.31,3.36,4.67,8.38,4.73s8.4-1.89,8.42-4.27c0-2.69-4.67-5.56-8.45-5.51h0" style="fill:#bc1142"/><path d="M429.8,403.1c3.72-.17,8.7,1.19,8.71,3s-4.52,5.71-8.95,5.63c-4.59.2-9.1-3.76-9-5.13-.07-2,5.59-3.59,9.28-3.49" style="fill:#bc1142"/><path d="M416.09,392.42c2.64,3.18,3.85,8.78,1.64,10.43-2.09,1.26-7.16.74-10.76-4.44-2.43-4.34-2.12-8.76-.41-10.06,2.55-1.55,6.49.55,9.53,4.07h0" style="fill:#bc1142"/><path d="M443,391.41c-2.86,3.35-4.45,9.46-2.36,11.43,2,1.53,7.35,1.31,11.3-4.18,2.88-3.68,1.92-9.84.27-11.48-2.43-1.88-5.93.53-9.21,4.23h0" style="fill:#bc1142"/><path d="M138.68,121c0,29.64,39.42,41.54,60.93,14.15a3,3,0,0,1,4.64,0c22,28.28,59.84,14.45,59.84-14.19s-37.46-43.12-59.78-14.31a3,3,0,0,1-4.71,0C178.37,78.14,138.68,91.35,138.68,121Zm11.3,0c0-21.87,30.37-29.08,45.17-1.49a3.09,3.09,0,0,1-.05,3C180,148.67,150,142.83,150,121Zm58.92,1.33a3.12,3.12,0,0,1,0-2.67c13.45-28.08,45-19.88,44.61,1.34C253.5,142.17,222,149,208.9,122.3Z" style="stroke:#000;stroke-miterlimit:10"/><rect x="161.64" y="117.79" width="18.72" height="6.01" rx="3" style="stroke:#000;stroke-miterlimit:10"/><path d="M226.47,123.79h-.35a3,3,0,0,1-3-3v-.35a3,3,0,0,1,3-3h.35a3,3,0,0,0,3-3v-.35a3,3,0,0,1,3-3h.35a3,3,0,0,1,3,3v.35a3,3,0,0,0,3,3h0a3,3,0,0,1,3,3v.35a3,3,0,0,1-3,3h0a3,3,0,0,0-3,3h0a3,3,0,0,1-3,3h-.35a3,3,0,0,1-3-3h0A3,3,0,0,0,226.47,123.79Z" style="stroke:#000;stroke-miterlimit:10"/><path d="M471.84,302.4a16.27,16.27,0,1,0,15,12.45c41.45-68.09,33.37-156.25-21.21-214.09C415.47,47.58,336.15,31.68,268.47,59.84a16.18,16.18,0,1,0,7.95,17.68C336.63,52.7,407,66.88,451.55,114.08,499.48,164.87,507.16,242.05,471.84,302.4Z" style="fill:#3b4687"/><path d="M159.6,187.05a16.06,16.06,0,0,0,10.52-4.3A16.25,16.25,0,1,0,143.64,176c-38.26,67.88-29,152,24.47,208.6,52.81,56,135.72,70.44,205.32,37.21a16.23,16.23,0,1,0-4.31-26.58,16.08,16.08,0,0,0-4.89,9.52c-61.85,29.07-135.24,16.1-182-33.47C135.07,321.29,126.53,247.26,159.6,187.05Z" style="fill:#549bbf"/></svg>