<svg id="Layer_1" data-name="Layer 1" xmlns="http://www.w3.org/2000/svg" viewBox="0 0 633.44 485.52"><path d="M551.4,310.5,347.26,148.88a9.17,9.17,0,0,0-1.31-4.63,9.29,9.29,0,1,0-5.17,13.65L544.43,319.16a9.31,9.31,0,1,0,7-8.66Z" style="fill:#3b4687"/><path d="M125,310.5,329.18,148.88a9.16,9.16,0,0,1,1.3-4.63,9.29,9.29,0,1,1,5.17,13.65L132,319.16a9.3,9.3,0,1,1-7-8.66Z" style="fill:#3b4687"/><path d="M449.93,310.48,345.79,228.86a9.2,9.2,0,0,0-1.31-4.63,9.29,9.29,0,1,0-5.16,13.65L443,319.14a9.22,9.22,0,0,0,1.32,5.12,9.3,9.3,0,1,0,5.64-13.78Z" style="fill:#549bbf"/><path d="M223.57,310.48l104.14-81.62a9.28,9.28,0,1,1,6.47,9L230.53,319.14a9.22,9.22,0,0,1-1.32,5.12,9.3,9.3,0,1,1-5.64-13.78Z" style="fill:#549bbf"/></svg>